<svg xmlns="http://www.w3.org/2000/svg" version="1.1" xmlns:xlink="http://www.w3.org/1999/xlink" xmlns:svgjs="http://svgjs.com/svgjs" width="1000" height="272"><svg xmlns="http://www.w3.org/2000/svg" version="1.1" xmlns:xlink="http://www.w3.org/1999/xlink" xmlns:svgjs="http://svgjs.dev/svgjs" width="1000" height="272" viewBox="0 0 1000 272"><g transform="matrix(1,0,0,1,-0.6056348047761162,-0.12801961862038524)"><svg viewBox="0 0 396 108" data-background-color="#ffffff" preserveAspectRatio="xMidYMid meet" height="272" width="1000" xmlns="http://www.w3.org/2000/svg" xmlns:xlink="http://www.w3.org/1999/xlink"><defs></defs><g id="SvgjsG1002" transform="matrix(1,0,0,1,0.24008861730862918,0.05097792910885346)"><svg viewBox="0 0 395.52 107.89819075173305" height="107.89819075173305" width="395.52"><g><svg viewBox="0 0 395.52 107.89819075173305" height="107.89819075173305" width="395.52"><g><svg viewBox="0 0 395.52 107.89819075173305" height="107.89819075173305" width="395.52"><g><svg viewBox="0 0 395.52 107.89819075173305" height="107.89819075173305" width="395.52"><g><svg viewBox="0 0 395.52 84.36008780016482" height="84.36008780016482" width="395.52"><path d="M394.594 18.094C392.735 9.337 387.435 6.903 387.435 6.903 371.165-2.116 350.86-0.173 332.619 1.123 300.414 1.176 268.339 3.102 236.208 4.136 168.767 4.293 100.749 1.701 33.643 8.094 27.339 10.055-6.54 8.479 1.121 19.214 3.129 23.68 10.456 28.637 10.232 32.735 11.236 33.453 12.631 31.806 13.226 32.84 15.309 35.624 18.711 34.311 21.501 35.957 17.614 40.353 20.403 44.013 23.062 47.848 18.377 48.847 12.371 48.374 9.675 51.684 9.396 54.083 7.89 53.628 6.235 53.523 5.026 53.453 2.59 53.715 2.999 54.468 4.394 57.043-1.594 58.531 2.162 61.053-0.422 63.785 3.948 66.15 3.353 69.109 3.278 69.705 3.687 70.213 4.338 70.353 7.22 71.106 3.018 72.577 3.464 74.171 33.029 85.064 65.104 77.533 95.394 82.542 103.259 79.039 97.346 83.785 100.489 83.05 102.943 82.192 104.728 85.747 107.499 83.733 107.927 83.155 107.276 81.789 108.8 82.051 109.6 82.192 110.307 82.157 110.418 81.351 110.586 80.143 109.117 80.896 108.726 80.265 112.947 77.078 111.906 84.661 115.866 84.346 115.68 83.417 114.528 82.086 116.889 82.262 119.232 80.931 119.306 79.827 121.389 82.822 121.463 83.47 121.835 83.925 122.43 84.241 128.938 80.983 135.409 85.396 142.233 83.925 146.417 82.314 150.433 84.801 154.672 84.188 156.16 83.698 157.666 82.822 159.098 84.293 176.632 84.608 195.319 83.295 211.943 84.346 256.364 82.384 303.835 85.151 350.674 82.559 361.719 81.561 373.192 80.143 383.958 79.004 383.958 79.004 392.679 75.887 392.679 61.876S394.538 49.617 394.817 38.461C395.096 27.306 396.398 26.85 394.538 18.094Z" opacity="1" fill="#a3f5c5" data-fill-palette-color="tertiary"></path><g transform="matrix(1,0,0,1,55.76832,26.068561146666667)"><svg width="283.98335999999995" viewBox="1.9500000476837158 -35.5 384.2200012207031 43.599998474121094" height="32.22296550683148" data-palette-color="#ffffff"><path d="M9.7 0L9.7-1.75 14.65-1.75 14.65-33.05 4.55-33.05 4.55-26.9 1.95-26.9 1.95-34.9 30.4-34.9 30.4-26.9 27.8-26.9 27.8-33.05 17.7-33.05 17.7-1.75 22.65-1.75 22.65 0 9.7 0ZM35 0L35-1.75 38.95-1.75 38.95-33.15 35-33.15 35-34.9 51.15-34.9Q55.65-34.9 58.1-32.52 60.55-30.15 60.55-25.7L60.55-25.7Q60.55-21.9 58.47-19.48 56.4-17.05 52.35-16.65L52.35-16.65 58.5-5.15Q60.25-1.75 63.7-1.75L63.7-1.75 64.45-1.75 64.45 0 62 0Q59.5 0 58.12-1.07 56.75-2.15 55.65-4.2L55.65-4.2 49.2-16.25 42-16.25 42-1.75 45.95-1.75 45.95 0 35 0ZM42-33.05L42-18.1 50.9-18.1Q52.45-18.1 53.65-18.63 54.85-19.15 55.65-20.03 56.45-20.9 56.87-22.05 57.3-23.2 57.3-24.5L57.3-24.5 57.3-26.65Q57.3-27.95 56.87-29.1 56.45-30.25 55.65-31.13 54.85-32 53.65-32.52 52.45-33.05 50.9-33.05L50.9-33.05 42-33.05ZM67.05 0L67.05-1.75 69.8-1.75 81.55-34.9 84.95-34.9 96.7-1.75 99.44-1.75 99.44 0 88.65 0 88.65-1.75 93.4-1.75 90-11.5 75.45-11.5 72.05-1.75 76.8-1.75 76.8 0 67.05 0ZM82.59-32.25L76-13.3 89.4-13.3 82.84-32.25 82.59-32.25ZM103.09 0L103.09-1.75 107.04-1.75 107.04-33.15 103.09-33.15 103.09-34.9 110.54-34.9 130.19-4.8 130.39-4.8 130.39-33.15 126.44-33.15 126.44-34.9 136.44-34.9 136.44-33.15 132.49-33.15 132.49 0 129.84 0 109.34-31.5 109.14-31.5 109.14-1.75 113.09-1.75 113.09 0 103.09 0ZM166.69 8.1L164.29 8.1Q161.79 8.1 160.31 7.28 158.84 6.45 157.69 4.7L157.69 4.7 154.79 0.5Q151.69 0.2 149.24-1.15 146.79-2.5 145.09-4.78 143.39-7.05 142.47-10.23 141.54-13.4 141.54-17.45L141.54-17.45Q141.54-21.75 142.59-25.13 143.64-28.5 145.59-30.8 147.54-33.1 150.34-34.3 153.14-35.5 156.59-35.5L156.59-35.5Q160.04-35.5 162.84-34.3 165.64-33.1 167.59-30.8 169.54-28.5 170.59-25.13 171.64-21.75 171.64-17.45L171.64-17.45Q171.64-9.3 168.02-4.65 164.39 0 158.09 0.5L158.09 0.5 160.34 3.65Q161.44 5.15 162.44 5.75 163.44 6.35 165.09 6.35L165.09 6.35 166.69 6.35 166.69 8.1ZM156.59-1.35L156.59-1.35Q159.34-1.35 161.52-2.33 163.69-3.3 165.19-5.1 166.69-6.9 167.47-9.47 168.24-12.05 168.24-15.3L168.24-15.3 168.24-19.6Q168.24-22.8 167.47-25.4 166.69-28 165.19-29.8 163.69-31.6 161.52-32.58 159.34-33.55 156.59-33.55L156.59-33.55Q153.79-33.55 151.64-32.58 149.49-31.6 147.99-29.8 146.49-28 145.72-25.4 144.94-22.8 144.94-19.6L144.94-19.6 144.94-15.3Q144.94-12.05 145.72-9.47 146.49-6.9 147.99-5.1 149.49-3.3 151.64-2.33 153.79-1.35 156.59-1.35ZM192.94 0.6L192.94 0.6Q189.59 0.6 187.26-0.15 184.94-0.9 183.46-2.58 181.99-4.25 181.34-6.93 180.69-9.6 180.69-13.45L180.69-13.45 180.69-33.15 176.74-33.15 176.74-34.9 187.69-34.9 187.69-33.15 183.74-33.15 183.74-12.95Q183.74-9.95 184.21-7.78 184.69-5.6 185.76-4.23 186.84-2.85 188.64-2.18 190.44-1.5 193.14-1.5L193.14-1.5Q195.79-1.5 197.61-2.18 199.44-2.85 200.56-4.23 201.69-5.6 202.16-7.78 202.64-9.95 202.64-12.95L202.64-12.95 202.64-33.15 198.69-33.15 198.69-34.9 208.69-34.9 208.69-33.15 204.74-33.15 204.74-13.85Q204.74-10 204.14-7.28 203.54-4.55 202.16-2.8 200.79-1.05 198.51-0.23 196.24 0.6 192.94 0.6ZM213.49 0L213.49-1.75 217.44-1.75 217.44-33.15 213.49-33.15 213.49-34.9 224.44-34.9 224.44-33.15 220.49-33.15 220.49-1.75 224.44-1.75 224.44 0 213.49 0ZM229.73 0L229.73-1.75 233.68-1.75 233.68-33.15 229.73-33.15 229.73-34.9 240.68-34.9 240.68-33.15 236.73-33.15 236.73-1.85 250.83-1.85 250.83-8.3 253.43-8.3 253.43 0 229.73 0ZM258.78 0L258.78-1.75 262.73-1.75 262.73-33.15 258.78-33.15 258.78-34.9 269.73-34.9 269.73-33.15 265.78-33.15 265.78-1.75 269.73-1.75 269.73 0 258.78 0ZM276.03-14L276.03-16.5 288.43-16.5 288.43-14 276.03-14ZM299.27 0L299.27-1.75 304.22-1.75 304.22-33.05 294.13-33.05 294.13-26.9 291.52-26.9 291.52-34.9 319.97-34.9 319.97-26.9 317.38-26.9 317.38-33.05 307.27-33.05 307.27-1.75 312.22-1.75 312.22 0 299.27 0ZM324.57 0L324.57-1.75 328.52-1.75 328.52-33.15 324.57-33.15 324.57-34.9 349.32-34.9 349.32-26.9 346.72-26.9 346.72-33.05 331.57-33.05 331.57-19.05 342.72-19.05 342.72-23.15 344.97-23.15 344.97-13.1 342.72-13.1 342.72-17.2 331.57-17.2 331.57-1.85 347.17-1.85 347.17-8.3 349.77-8.3 349.77 0 324.57 0ZM353.77 0L353.77-1.75 356.52-1.75 368.27-34.9 371.67-34.9 383.42-1.75 386.17-1.75 386.17 0 375.37 0 375.37-1.75 380.12-1.75 376.72-11.5 362.17-11.5 358.77-1.75 363.52-1.75 363.52 0 353.77 0ZM369.32-32.25L362.72-13.3 376.12-13.3 369.57-32.25 369.32-32.25Z" opacity="1" transform="matrix(1,0,0,1,0,0)" fill="#ffffff" class="undefined-text-0" data-fill-palette-color="quaternary" id="SvgjsPath1001"></path></svg></g></svg></g><g transform="matrix(1,0,0,1,115.69832864074135,91.96715660515557)"><svg viewBox="0 0 164.12334271851728 15.931034146577481" height="15.931034146577481" width="164.12334271851728"><g transform="matrix(1,0,0,1,0,0)"><svg width="164.12334271851728" viewBox="0.9000000357627869 -38.75 511.4499816894531 49.650001525878906" height="15.931034146577481" data-palette-color="#111111"><path d="M24.25-14.6Q14.4-13.4 10.3-12.5L10.3-12.5 7.6-1.8Q7.25-0.35 6.58 0.15 5.9 0.65 3.9 0.65L3.9 0.65Q2.35 0.65 1.63 0.13 0.9-0.4 0.9-1.65L0.9-1.65Q0.9-2.2 1.05-2.7L1.05-2.7 7.9-29.75Q8.45-31.95 9.08-32.68 9.7-33.4 11.35-33.4L11.35-33.4Q12.7-33.4 13.83-33.1 14.95-32.8 15-32.2L15-32.2Q15-32.1 14.35-29.5L14.35-29.5Q13.35-25.65 11.5-17.8L11.5-17.8Q18.9-19.3 25.55-19.85L25.55-19.85 27.85-29.15Q28.35-31.15 29.23-32.13 30.1-33.1 31.6-33.4L31.6-33.4Q33.45-33.05 34.02-32.83 34.6-32.6 34.8-32.15L34.8-32.15Q34.15-30.3 33.83-28.73 33.5-27.15 33.45-26.85L33.45-26.85Q32.8-23.35 31.9-19.7L31.9-19.7Q33.85-18.85 33.85-17.4L33.85-17.4Q33.85-15.95 30.75-14.95L30.75-14.95Q30.2-12.95 28.7-6.25L28.7-6.25Q28.35-4.4 27.7-1.65L27.7-1.65Q27 1.1 25.5 1.1L25.5 1.1Q20.9 1.1 20.9-1.05L20.9-1.05Q20.9-1.5 24.25-14.6L24.25-14.6ZM45.5 1.05Q40.6 1.05 38.35-0.9 36.1-2.85 36.1-6.1L36.1-6.1Q36.1-10.85 38.47-14.9 40.85-18.95 44.82-21.33 48.8-23.7 53.4-23.7L53.4-23.7Q56.2-23.7 58.1-22.13 60-20.55 60-17.5L60-17.5Q60-15.75 58.87-14.63 57.75-13.5 55.65-12.63 53.55-11.75 48.85-10.15L48.85-10.15Q44.6-8.75 41.95-7.8L41.95-7.8Q41.75-7.05 41.75-6.25L41.75-6.25Q41.75-4.85 42.92-4.1 44.1-3.35 46.25-3.35L46.25-3.35Q47.6-3.35 49.35-3.9 51.1-4.45 51.55-5.3L51.55-5.3Q53.25-8.4 54.65-8.4L54.65-8.4Q56.7-8.4 57.42-7.63 58.15-6.85 58.2-5.9L58.2-5.9Q57.6-4.3 55.85-2.68 54.1-1.05 51.4 0 48.7 1.05 45.5 1.05L45.5 1.05ZM43.35-12.4Q48.3-14 51.5-15.38 54.7-16.75 54.7-18.1L54.7-18.1Q54.7-18.7 54.05-19.07 53.4-19.45 52.65-19.45L52.65-19.45Q51.15-19.45 49.22-18.3 47.3-17.15 45.65-15.5 44-13.85 43.35-12.4L43.35-12.4ZM81.2-2.6Q81.3-1.3 81.55-0.25L81.55-0.25Q81.45 0.05 80.67 0.35 79.9 0.65 79.34 0.65L79.34 0.65Q77.55 0.65 76.77 0.13 76-0.4 76-1.45L76-1.45Q76-2.45 76.2-3.45L76.2-3.45Q75.09-1.95 72.97-0.98 70.84 0 69.55 0L69.55 0Q66.2 0 63.97-1.95 61.75-3.9 61.75-8.2L61.75-8.2Q61.75-12.25 63.67-15.83 65.59-19.4 69-21.58 72.4-23.75 76.55-23.75L76.55-23.75Q77.34-23.75 78.65-23.33 79.95-22.9 81.27-21.88 82.59-20.85 83.5-19.25L83.5-19.25Q83.9-19.25 84.45-18.85 85-18.45 85-18.05L85-18.05Q85-17.6 84.84-17.15L84.84-17.15 81.2-2.6ZM78.95-16.6Q78.65-17.7 77.77-18.45 76.9-19.2 76.2-19.2L76.2-19.2Q73.9-19.2 71.87-17.57 69.84-15.95 68.59-13.55 67.34-11.15 67.34-9L67.34-9Q67.34-6.9 67.84-5.55 68.34-4.2 69.8-4.2L69.8-4.2Q71.05-4.2 72.67-4.95 74.3-5.7 75.57-6.98 76.84-8.25 77.25-9.65L77.25-9.65 78.95-16.6ZM101.34-35.85L99.24-27.2Q93.59-3.45 92.59-0.05L92.59-0.05Q92.49 0.25 91.57 0.73 90.64 1.2 90.29 1.2L90.29 1.2Q88.89 1.2 87.59 0.5 86.29-0.2 86.19-1.75L86.19-1.75Q86.24-1.85 86.69-2.8 87.14-3.75 87.59-5.5L87.59-5.5Q88.74-9.8 90.22-15.7 91.69-21.6 92.19-23.6L92.19-23.6 94.54-33.15Q94.49-33.55 94.49-37.3L94.49-37.3Q94.64-37.95 95.62-38.35 96.59-38.75 97.39-38.75L97.39-38.75Q98.64-38.75 99.97-37.9 101.29-37.05 101.34-35.85L101.34-35.85ZM111.94-18.1L108.79-5.5Q108.79-4.35 109.39-3.68 109.99-3 111.09-3L111.09-3Q112.59-3 113.57-3.88 114.54-4.75 115.64-6.35L115.64-6.35Q116.44-7.5 116.94-8 117.44-8.5 118.09-8.5L118.09-8.5Q119.39-8.5 119.94-8.18 120.49-7.85 120.49-6.85L120.49-6.85Q120.49-6.4 120.39-5.78 120.29-5.15 120.14-4.85L120.14-4.85Q118.94-2.3 116.22-0.45 113.49 1.4 110.04 1.4L110.04 1.4Q106.59 1.4 104.84-0.28 103.09-1.95 103.09-5.05L103.09-5.05Q103.09-5.5 103.54-7.4 103.99-9.3 104.69-11.95L104.69-11.95 106.09-17.65 103.04-17.4Q102.44-17.4 102.14-17.85 101.84-18.3 101.84-18.95L101.84-18.95Q101.84-20.2 102.74-21.45L102.74-21.45Q102.84-21.6 103.74-21.75 104.64-21.9 105.94-22.05L105.94-22.05 107.29-22.2 108.99-29.5Q109.49-30.8 110.52-31.53 111.54-32.25 112.44-32.25L112.44-32.25Q113.44-32.25 114.14-31.65 114.84-31.05 114.89-30.25L114.89-30.25 113.09-22.75Q115.04-23 116.72-23.18 118.39-23.35 119.34-23.35L119.34-23.35Q121.24-23.35 121.24-21.15L121.24-21.15Q121.24-20.3 120.52-19.63 119.79-18.95 118.94-18.8L118.94-18.8 111.94-18.1ZM130.94-16.5Q132.09-18.75 134.11-20.35 136.14-21.95 138.24-22.8 140.34-23.65 141.69-23.65L141.69-23.65Q144.29-23.65 145.44-22.68 146.59-21.7 146.59-19.6L146.59-19.6Q143.64-11.9 142.69-3L142.69-3 143.39-0.55Q142.79 0.6 141.79 1.28 140.79 1.95 138.74 1.95L138.74 1.95Q137.54 1.95 136.99 1.15 136.44 0.35 136.44-0.85L136.44-0.85Q136.44-4.2 137.41-8.22 138.39-12.25 139.69-16.45L139.69-16.45Q140.19-18.05 140.19-18.1L140.19-18.1Q140.19-18.8 139.39-18.8L139.39-18.8Q138.34-18.8 136.34-17.25 134.34-15.7 132.19-12.03 130.04-8.35 128.59-2.4L128.59-2.4Q128.54-2.15 128.34-1.35 128.14-0.55 127.44-0.2 126.74 0.15 125.29 0.15L125.29 0.15Q123.54 0.15 122.59-0.23 121.64-0.6 121.64-1.7L121.64-1.7Q128.19-27.45 129.74-33.9L129.74-33.9Q129.69-34.55 129.66-35.63 129.64-36.7 129.64-37.3L129.64-37.3Q129.79-38 130.71-38.38 131.64-38.75 132.59-38.75L132.59-38.75Q134.19-38.75 135.29-37.9 136.39-37.05 136.49-35.75L136.49-35.75 130.94-16.5ZM155.24-29.7Q155.24-31.25 156.21-32.45 157.19-33.65 158.94-33.65L158.94-33.65Q160.79-33.65 162.16-32.5 163.54-31.35 163.54-29.9L163.54-29.9Q163.54-28.45 162.14-27.4 160.74-26.35 158.89-26.35L158.89-26.35Q157.09-26.35 156.16-27.28 155.24-28.2 155.24-29.7L155.24-29.7ZM160.49-20.85Q157.84-10.05 156.44-4.6L156.44-4.6Q156.24-3.8 156.24-2.85L156.24-2.85 156.29-1.45Q156.29-0.6 155.76-0.25 155.24 0.1 153.54 0.15L153.54 0.15Q151.89 0.15 151.04-0.2 150.19-0.55 150.19-1.7L150.19-1.7Q150.19-2.25 151.46-7.55 152.74-12.85 154.94-21.35L154.94-21.35 153.79-22.85Q153.64-23 153.64-23.2L153.64-23.2Q153.64-23.7 154.74-24.03 155.84-24.35 157.79-24.35L157.79-24.35Q159.49-24.35 159.96-23.38 160.44-22.4 160.49-20.85L160.49-20.85ZM172.38 1.05Q167.48 1.05 165.23-0.9 162.98-2.85 162.98-6.1L162.98-6.1Q162.98-10.85 165.36-14.9 167.73-18.95 171.71-21.33 175.68-23.7 180.28-23.7L180.28-23.7Q183.08-23.7 184.98-22.13 186.88-20.55 186.88-17.5L186.88-17.5Q186.88-15.75 185.76-14.63 184.63-13.5 182.53-12.63 180.43-11.75 175.73-10.15L175.73-10.15Q171.48-8.75 168.83-7.8L168.83-7.8Q168.63-7.05 168.63-6.25L168.63-6.25Q168.63-4.85 169.81-4.1 170.98-3.35 173.13-3.35L173.13-3.35Q174.48-3.35 176.23-3.9 177.98-4.45 178.43-5.3L178.43-5.3Q180.13-8.4 181.53-8.4L181.53-8.4Q183.58-8.4 184.31-7.63 185.03-6.85 185.08-5.9L185.08-5.9Q184.48-4.3 182.73-2.68 180.98-1.05 178.28 0 175.58 1.05 172.38 1.05L172.38 1.05ZM170.23-12.4Q175.18-14 178.38-15.38 181.58-16.75 181.58-18.1L181.58-18.1Q181.58-18.7 180.93-19.07 180.28-19.45 179.53-19.45L179.53-19.45Q178.03-19.45 176.11-18.3 174.18-17.15 172.53-15.5 170.88-13.85 170.23-12.4L170.23-12.4ZM205.48-19.35Q204.88-19.65 203.98-19.65L203.98-19.65Q201.73-19.65 199.48-18.75 197.23-17.85 197.23-16.45L197.23-16.45Q197.23-15.45 198.13-14.85 199.03-14.25 200.98-13.5L200.98-13.5Q203.08-12.65 204.38-11.9 205.68-11.15 206.66-9.73 207.63-8.3 207.63-6.1L207.63-6.1Q207.63-2.5 204.66-0.58 201.68 1.35 196.68 1.35L196.68 1.35Q194.23 1.35 192.13 0.6 190.03-0.15 188.81-1.33 187.58-2.5 187.48-3.65L187.48-3.65Q187.48-4.85 188.53-5.63 189.58-6.4 191.48-6.65L191.48-6.65Q191.53-5.65 192.53-4.78 193.53-3.9 194.91-3.38 196.28-2.85 197.28-2.85L197.28-2.85Q198.98-2.85 200.38-3.78 201.78-4.7 201.78-5.95L201.78-5.95Q201.78-8.25 197.33-9.6L197.33-9.6Q194.48-10.45 192.96-12.3 191.43-14.15 191.43-16.2L191.43-16.2Q191.43-20.25 195.11-22.03 198.78-23.8 204.48-23.8L204.48-23.8Q207.68-23.8 209.43-23.05 211.18-22.3 211.18-20.45L211.18-20.45Q211.18-19.2 210.26-18.25 209.33-17.3 207.63-17.3L207.63-17.3Q206.13-17.3 205.71-17.53 205.28-17.75 205.23-18.3L205.23-18.3Q205.23-18.8 205.48-19.35L205.48-19.35ZM222.48-18.1L219.33-5.5Q219.33-4.35 219.93-3.68 220.53-3 221.63-3L221.63-3Q223.13-3 224.1-3.88 225.08-4.75 226.18-6.35L226.18-6.35Q226.98-7.5 227.48-8 227.98-8.5 228.63-8.5L228.63-8.5Q229.93-8.5 230.48-8.18 231.03-7.85 231.03-6.85L231.03-6.85Q231.03-6.4 230.93-5.78 230.83-5.15 230.68-4.85L230.68-4.85Q229.48-2.3 226.75-0.45 224.03 1.4 220.58 1.4L220.58 1.4Q217.13 1.4 215.38-0.28 213.63-1.95 213.63-5.05L213.63-5.05Q213.63-5.5 214.08-7.4 214.53-9.3 215.23-11.95L215.23-11.95 216.63-17.65 213.58-17.4Q212.98-17.4 212.68-17.85 212.38-18.3 212.38-18.95L212.38-18.95Q212.38-20.2 213.28-21.45L213.28-21.45Q213.38-21.6 214.28-21.75 215.18-21.9 216.48-22.05L216.48-22.05 217.83-22.2 219.53-29.5Q220.03-30.8 221.05-31.53 222.08-32.25 222.98-32.25L222.98-32.25Q223.98-32.25 224.68-31.65 225.38-31.05 225.43-30.25L225.43-30.25 223.63-22.75Q225.58-23 227.25-23.18 228.93-23.35 229.88-23.35L229.88-23.35Q231.78-23.35 231.78-21.15L231.78-21.15Q231.78-20.3 231.05-19.63 230.33-18.95 229.48-18.8L229.48-18.8 222.48-18.1ZM248.32-27.5Q248.32-28.2 248.75-28.63 249.17-29.05 249.92-29.4L249.92-29.4Q250.17-29.55 251.75-30.3 253.32-31.05 254.77-31.45L254.77-31.45Q255.22-32.45 256.15-33.1 257.07-33.75 258.52-33.75L258.52-33.75Q259.37-33.75 259.92-33.43 260.47-33.1 260.67-32.6L260.67-32.6Q262.52-33.2 265.12-33.2L265.12-33.2Q268.37-33.2 270.75-31.83 273.12-30.45 274.35-28.05 275.57-25.65 275.57-22.65L275.57-22.65Q275.57-22.05 275.42-21L275.42-21Q273.37-9.3 257.92-9.3L257.92-9.3Q256.52-9.3 255.87-9.35L255.87-9.35 255.22-6.95Q254.17-3.1 254.17-3L254.17-3Q253.77-1.25 252.95-0.3 252.12 0.65 250.27 0.65L250.27 0.65Q248.72 0.65 248 0.13 247.27-0.4 247.27-1.65L247.27-1.65Q247.27-2.2 247.42-2.7L247.42-2.7 253.47-26.05Q250.87-25.3 249.52-24L249.52-24Q248.97-24.6 248.65-25.58 248.32-26.55 248.32-27.5L248.32-27.5ZM256.92-14Q257.52-13.95 258.62-13.95L258.62-13.95Q263.37-13.95 266.15-15.75 268.92-17.55 269.72-21.3L269.72-21.3Q269.87-22.15 269.87-22.55L269.87-22.55Q269.87-25.35 268.32-26.73 266.77-28.1 263.97-28.1L263.97-28.1Q262.47-28.1 260.12-27.4L260.12-27.4Q258.17-19.65 256.92-14L256.92-14ZM286.77 1.05Q282.37 1.05 279.92-1.95 277.47-4.95 277.47-9.6L277.47-9.6Q277.47-13.5 279.35-16.95 281.22-20.4 284.47-22.5 287.72-24.6 291.62-24.6L291.62-24.6Q295.47-24.6 297.94-22.08 300.42-19.55 300.42-14.65L300.42-14.65Q300.42-11.2 298.52-7.5 296.62-3.8 293.44-1.38 290.27 1.05 286.77 1.05L286.77 1.05ZM287.52-2.95Q289.12-2.95 290.75-4.95 292.37-6.95 293.42-10 294.47-13.05 294.47-15.95L294.47-15.95Q294.47-20.4 290.77-20.4L290.77-20.4Q288.72-20.4 287.02-18.45 285.32-16.5 284.32-13.63 283.32-10.75 283.32-8.25L283.32-8.25Q283.32-6.8 283.97-5.58 284.62-4.35 285.6-3.65 286.57-2.95 287.52-2.95L287.52-2.95ZM319.07-19.35Q318.47-19.65 317.57-19.65L317.57-19.65Q315.32-19.65 313.07-18.75 310.82-17.85 310.82-16.45L310.82-16.45Q310.82-15.45 311.72-14.85 312.62-14.25 314.57-13.5L314.57-13.5Q316.67-12.65 317.97-11.9 319.27-11.15 320.24-9.73 321.22-8.3 321.22-6.1L321.22-6.1Q321.22-2.5 318.24-0.58 315.27 1.35 310.27 1.35L310.27 1.35Q307.82 1.35 305.72 0.6 303.62-0.15 302.39-1.33 301.17-2.5 301.07-3.65L301.07-3.65Q301.07-4.85 302.12-5.63 303.17-6.4 305.07-6.65L305.07-6.65Q305.12-5.65 306.12-4.78 307.12-3.9 308.49-3.38 309.87-2.85 310.87-2.85L310.87-2.85Q312.57-2.85 313.97-3.78 315.37-4.7 315.37-5.95L315.37-5.95Q315.37-8.25 310.92-9.6L310.92-9.6Q308.07-10.45 306.54-12.3 305.02-14.15 305.02-16.2L305.02-16.2Q305.02-20.25 308.69-22.03 312.37-23.8 318.07-23.8L318.07-23.8Q321.27-23.8 323.02-23.05 324.77-22.3 324.77-20.45L324.77-20.45Q324.77-19.2 323.84-18.25 322.92-17.3 321.22-17.3L321.22-17.3Q319.72-17.3 319.29-17.53 318.87-17.75 318.82-18.3L318.82-18.3Q318.82-18.8 319.07-19.35L319.07-19.35ZM342.06-19.35Q341.46-19.65 340.56-19.65L340.56-19.65Q338.31-19.65 336.06-18.75 333.81-17.85 333.81-16.45L333.81-16.45Q333.81-15.45 334.71-14.85 335.62-14.25 337.56-13.5L337.56-13.5Q339.67-12.65 340.96-11.9 342.26-11.15 343.24-9.73 344.21-8.3 344.21-6.1L344.21-6.1Q344.21-2.5 341.24-0.58 338.26 1.35 333.26 1.35L333.26 1.35Q330.81 1.35 328.71 0.6 326.62-0.15 325.39-1.33 324.17-2.5 324.06-3.65L324.06-3.65Q324.06-4.85 325.12-5.63 326.17-6.4 328.06-6.65L328.06-6.65Q328.12-5.65 329.12-4.78 330.12-3.9 331.49-3.38 332.87-2.85 333.87-2.85L333.87-2.85Q335.56-2.85 336.96-3.78 338.37-4.7 338.37-5.95L338.37-5.95Q338.37-8.25 333.92-9.6L333.92-9.6Q331.06-10.45 329.54-12.3 328.01-14.15 328.01-16.2L328.01-16.2Q328.01-20.25 331.69-22.03 335.37-23.8 341.06-23.8L341.06-23.8Q344.26-23.8 346.01-23.05 347.76-22.3 347.76-20.45L347.76-20.45Q347.76-19.2 346.84-18.25 345.92-17.3 344.21-17.3L344.21-17.3Q342.71-17.3 342.29-17.53 341.87-17.75 341.81-18.3L341.81-18.3Q341.81-18.8 342.06-19.35L342.06-19.35ZM354.31-29.7Q354.31-31.25 355.29-32.45 356.26-33.65 358.01-33.65L358.01-33.65Q359.86-33.65 361.24-32.5 362.61-31.35 362.61-29.9L362.61-29.9Q362.61-28.45 361.21-27.4 359.81-26.35 357.96-26.35L357.96-26.35Q356.16-26.35 355.24-27.28 354.31-28.2 354.31-29.7L354.31-29.7ZM359.56-20.85Q356.91-10.05 355.51-4.6L355.51-4.6Q355.31-3.8 355.31-2.85L355.31-2.85 355.36-1.45Q355.36-0.6 354.84-0.25 354.31 0.1 352.61 0.15L352.61 0.15Q350.96 0.15 350.11-0.2 349.26-0.55 349.26-1.7L349.26-1.7Q349.26-2.25 350.54-7.55 351.81-12.85 354.01-21.35L354.01-21.35 352.86-22.85Q352.71-23 352.71-23.2L352.71-23.2Q352.71-23.7 353.81-24.03 354.91-24.35 356.86-24.35L356.86-24.35Q358.56-24.35 359.04-23.38 359.51-22.4 359.56-20.85L359.56-20.85ZM367.96-2.3Q367.66-1.6 367.51-1.05L367.51-1.05Q367.06 0.1 366.71 0.63 366.36 1.15 365.61 1.15L365.61 1.15 364.21 1.2Q362.96 1.2 362.21 0.68 361.46 0.15 361.36-1.45L361.36-1.45Q361.41-1.5 361.86-2.58 362.31-3.65 362.76-5.5L362.76-5.5Q363.36-7.95 363.96-10.35 364.56-12.75 365.11-15L365.11-15Q365.86-17.95 367.31-23.83 368.76-29.7 369.56-33.15L369.56-33.15Q369.51-33.9 369.46-35.23 369.41-36.55 369.41-37.3L369.41-37.3Q369.56-37.95 370.54-38.35 371.51-38.75 372.31-38.75L372.31-38.75Q373.56-38.75 374.91-37.9 376.26-37.05 376.31-35.85L376.31-35.85 372.56-21.05Q373.91-22.6 375.84-23.23 377.76-23.85 379.41-23.85L379.41-23.85Q381.76-23.85 383.63-22.5 385.51-21.15 386.59-18.93 387.66-16.7 387.66-14.25L387.66-14.25Q387.66-10.65 385.96-7.18 384.26-3.7 381.01-1.48 377.76 0.75 373.41 0.75L373.41 0.75Q372.16 0.75 370.34-0.15 368.51-1.05 367.96-2.3L367.96-2.3ZM369.16-6.45Q369.81-5.3 371.11-4.4 372.41-3.5 373.46-3.5L373.46-3.5Q375.81-3.5 377.76-5.58 379.71-7.65 380.86-10.53 382.01-13.4 382.01-15.7L382.01-15.7Q382.01-17.3 381.16-18.35 380.31-19.4 378.66-19.4L378.66-19.4Q377.21-19.4 375.56-18.75 373.91-18.1 372.63-16.88 371.36-15.65 370.91-14.05L370.91-14.05 369.16-6.45ZM403.96-35.85L401.86-27.2Q396.21-3.45 395.21-0.05L395.21-0.05Q395.11 0.25 394.18 0.73 393.26 1.2 392.91 1.2L392.91 1.2Q391.51 1.2 390.21 0.5 388.91-0.2 388.81-1.75L388.81-1.75Q388.86-1.85 389.31-2.8 389.76-3.75 390.21-5.5L390.21-5.5Q391.36-9.8 392.83-15.7 394.31-21.6 394.81-23.6L394.81-23.6 397.16-33.15Q397.11-33.55 397.11-37.3L397.11-37.3Q397.26-37.95 398.23-38.35 399.21-38.75 400.01-38.75L400.01-38.75Q401.26-38.75 402.58-37.9 403.91-37.05 403.96-35.85L403.96-35.85ZM413.16 1.05Q408.25 1.05 406-0.9 403.75-2.85 403.75-6.1L403.75-6.1Q403.75-10.85 406.13-14.9 408.5-18.95 412.48-21.33 416.45-23.7 421.06-23.7L421.06-23.7Q423.86-23.7 425.75-22.13 427.66-20.55 427.66-17.5L427.66-17.5Q427.66-15.75 426.53-14.63 425.41-13.5 423.31-12.63 421.2-11.75 416.5-10.15L416.5-10.15Q412.25-8.75 409.61-7.8L409.61-7.8Q409.41-7.05 409.41-6.25L409.41-6.25Q409.41-4.85 410.58-4.1 411.75-3.35 413.91-3.35L413.91-3.35Q415.25-3.35 417-3.9 418.75-4.45 419.2-5.3L419.2-5.3Q420.91-8.4 422.31-8.4L422.31-8.4Q424.36-8.4 425.08-7.63 425.81-6.85 425.86-5.9L425.86-5.9Q425.25-4.3 423.5-2.68 421.75-1.05 419.06 0 416.36 1.05 413.16 1.05L413.16 1.05ZM411-12.4Q415.95-14 419.16-15.38 422.36-16.75 422.36-18.1L422.36-18.1Q422.36-18.7 421.7-19.07 421.06-19.45 420.31-19.45L420.31-19.45Q418.81-19.45 416.88-18.3 414.95-17.15 413.31-15.5 411.66-13.85 411-12.4L411-12.4ZM466.1-26.35Q465.85-27.15 464.18-27.78 462.5-28.4 459.8-28.4L459.8-28.4Q456.85-28.4 455.2-26.75 453.55-25.1 453.55-22.6L453.55-22.6Q453.55-21.05 454.68-20.23 455.8-19.4 458.15-18.4L458.15-18.4 459.95-17.65 461.45-16.95Q464.15-15.75 465.73-14.78 467.3-13.8 468.4-12.1 469.5-10.4 469.5-7.75L469.5-7.75Q469.5-4.9 467.63-2.83 465.75-0.75 462.4 0.33 459.05 1.4 454.6 1.4L454.6 1.4Q451.3 1.4 448.43 0.38 445.55-0.65 443.88-2.2 442.2-3.75 442.2-5.25L442.2-5.25Q442.2-6.7 443.45-7.63 444.7-8.55 447-8.9L447-8.9Q447.25-7.45 448.7-6.3 450.15-5.15 452.07-4.48 454-3.8 455.45-3.8L455.45-3.8Q458.1-3.8 460.18-4.85 462.25-5.9 462.25-7.75L462.25-7.75Q462.25-9.3 460.77-10.33 459.3-11.35 456.35-12.55L456.35-12.55 453.7-13.75Q450.45-15.35 448.55-17.35 446.65-19.35 446.65-22.65L446.65-22.65Q446.65-26.3 448.7-28.58 450.75-30.85 453.68-31.85 456.6-32.85 459.4-32.85L459.4-32.85Q463.85-32.85 466.73-31.7 469.6-30.55 470.9-28.8 472.2-27.05 472.2-25.2L472.2-25.2Q472.2-24.15 471.68-22.65 471.15-21.15 470.13-20.05 469.1-18.95 467.65-18.95L467.65-18.95Q465.15-18.95 465.15-21.55L465.15-21.55Q465.25-22.35 465.6-24.18 465.95-26 466.1-26.35L466.1-26.35ZM479.9-29.7Q479.9-31.25 480.87-32.45 481.85-33.65 483.6-33.65L483.6-33.65Q485.45-33.65 486.82-32.5 488.2-31.35 488.2-29.9L488.2-29.9Q488.2-28.45 486.8-27.4 485.4-26.35 483.55-26.35L483.55-26.35Q481.75-26.35 480.82-27.28 479.9-28.2 479.9-29.7L479.9-29.7ZM485.15-20.85Q482.5-10.05 481.1-4.6L481.1-4.6Q480.9-3.8 480.9-2.85L480.9-2.85 480.95-1.45Q480.95-0.6 480.42-0.25 479.9 0.1 478.2 0.15L478.2 0.15Q476.55 0.15 475.7-0.2 474.85-0.55 474.85-1.7L474.85-1.7Q474.85-2.25 476.12-7.55 477.4-12.85 479.6-21.35L479.6-21.35 478.45-22.85Q478.3-23 478.3-23.2L478.3-23.2Q478.3-23.7 479.4-24.03 480.5-24.35 482.45-24.35L482.45-24.35Q484.15-24.35 484.62-23.38 485.1-22.4 485.15-20.85L485.15-20.85ZM493.5-2.2Q493.44-1.9 492.17 3.28 490.89 8.45 490.39 9.8L490.39 9.8Q490.19 10.35 489.19 10.63 488.19 10.9 487.75 10.9L487.75 10.9Q486.64 10.9 485.92 10.2 485.19 9.5 485.14 8.1L485.14 8.1 488.64-6.25Q490.64-14.1 491.94-19.65L491.94-19.65Q491.94-19.95 491.59-21.25L491.59-21.25Q491.44-22.05 491.3-22.75 491.14-23.45 491.09-23.8L491.09-23.8Q491.19-24.45 492.12-24.85 493.05-25.25 493.84-25.25L493.84-25.25Q495.05-25.25 496.22-24.4 497.39-23.55 497.55-22.35L497.55-22.35 497.39-21.05Q499.64-23.85 503.14-23.85L503.14-23.85Q506-23.85 508.07-22.48 510.14-21.1 511.25-18.78 512.35-16.45 512.35-13.65L512.35-13.65Q512.35-9.9 510.89-6.6 509.44-3.3 506.55-1.28 503.64 0.75 499.55 0.75L499.55 0.75Q498.25 0.75 496.19-0.13 494.14-1 493.5-2.2L493.5-2.2ZM495.05-8.55Q494.94-7.95 494.94-7.7L494.94-7.7Q495-6.45 495.77-5.5 496.55-4.55 497.59-4.03 498.64-3.5 499.34-3.5L499.34-3.5Q501.55-3.5 503.22-5.18 504.89-6.85 505.8-9.33 506.69-11.8 506.69-14.05L506.69-14.05Q506.69-16.15 505.57-17.78 504.44-19.4 502.75-19.4L502.75-19.4Q500.84-19.4 499.62-18.57 498.39-17.75 496.84-16.05L496.84-16.05 495.05-8.55Z" opacity="1" transform="matrix(1,0,0,1,0,0)" fill="#111111" class="undefined-text-1" data-fill-palette-color="secondary" id="SvgjsPath1000"></path></svg></g></svg></g></svg></g></svg></g><g></g></svg></g></svg><rect width="395.52" height="107.89819075173305" fill="none" stroke="none" visibility="hidden"></rect></g></svg></g></svg><style>@media (prefers-color-scheme: light) { :root { filter: none; } }
</style></svg>